<svg xmlns="http://www.w3.org/2000/svg" xmlns:xlink="http://www.w3.org/1999/xlink" id="visual" viewBox="0 0 960 540" width="100%" version="1.1"><path d="M486 540L644 540L644 504L488 504L488 468L549 468L549 432L503 432L503 396L528 396L528 360L494 360L494 324L549 324L549 288L536 288L536 252L548 252L548 216L492 216L492 180L534 180L534 144L515 144L515 108L495 108L495 72L520 72L520 36L527 36L527 0L960 0L960 36L960 36L960 72L960 72L960 108L960 108L960 144L960 144L960 180L960 180L960 216L960 216L960 252L960 252L960 288L960 288L960 324L960 324L960 360L960 360L960 396L960 396L960 432L960 432L960 468L960 468L960 504L960 504L960 540L960 540Z" fill="#005f73"/><path d="M656 540L690 540L690 504L672 504L672 468L665 468L665 432L640 432L640 396L611 396L611 360L574 360L574 324L619 324L619 288L595 288L595 252L580 252L580 216L601 216L601 180L673 180L673 144L613 144L613 108L596 108L596 72L629 72L629 36L642 36L642 0L960 0L960 36L960 36L960 72L960 72L960 108L960 108L960 144L960 144L960 180L960 180L960 216L960 216L960 252L960 252L960 288L960 288L960 324L960 324L960 360L960 360L960 396L960 396L960 432L960 432L960 468L960 468L960 504L960 504L960 540L960 540Z" fill="#3b788f"/><path d="M756 540L742 540L742 504L776 504L776 468L688 468L688 432L735 432L735 396L733 396L733 360L656 360L656 324L662 324L662 288L731 288L731 252L676 252L676 216L647 216L647 180L671 180L671 144L753 144L753 108L734 108L734 72L723 72L723 36L658 36L658 0L960 0L960 36L960 36L960 72L960 72L960 108L960 108L960 144L960 144L960 180L960 180L960 216L960 216L960 252L960 252L960 288L960 288L960 324L960 324L960 360L960 360L960 396L960 396L960 432L960 432L960 468L960 468L960 504L960 504L960 540L960 540Z" fill="#6292ac"/><path d="M843 540L815 540L815 504L732 504L732 468L780 468L780 432L842 432L842 396L761 396L761 360L748 360L748 324L746 324L746 288L795 288L795 252L771 252L771 216L786 216L786 180L802 180L802 144L781 144L781 108L830 108L830 72L806 72L806 36L762 36L762 0L960 0L960 36L960 36L960 72L960 72L960 108L960 108L960 144L960 144L960 180L960 180L960 216L960 216L960 252L960 252L960 288L960 288L960 324L960 324L960 360L960 360L960 396L960 396L960 432L960 432L960 468L960 468L960 504L960 504L960 540L960 540Z" fill="#87adc9"/><path d="M839 540L907 540L907 504L898 504L898 468L895 468L895 432L820 432L820 396L890 396L890 360L818 360L818 324L860 324L860 288L902 288L902 252L881 252L881 216L820 216L820 180L853 180L853 144L902 144L902 108L894 108L894 72L836 72L836 36L837 36L837 0L960 0L960 36L960 36L960 72L960 72L960 108L960 108L960 144L960 144L960 180L960 180L960 216L960 216L960 252L960 252L960 288L960 288L960 324L960 324L960 360L960 360L960 396L960 396L960 432L960 432L960 468L960 468L960 504L960 504L960 540L960 540Z" fill="#acc8e5"/></svg>